<?xml version="1.0"?>
<!DOCTYPE svg PUBLIC "-//W3C//DTD SVG 1.1//EN" "http://www.w3.org/Graphics/SVG/1.1/DTD/svg11.dtd">
<svg xmlns="http://www.w3.org/2000/svg" xmlns:xl="http://www.w3.org/1999/xlink" version="1.1" viewBox="228 117 121 127" width="121pt" height="127pt"><metadata xmlns:dc="http://purl.org/dc/elements/1.1/"><dc:date>2013-11-18 15:59Z</dc:date><!-- Produced by OmniGraffle Professional 5.4.2 --></metadata><defs><radialGradient cx="0" cy="0" r="1" id="Gradient" gradientUnits="userSpaceOnUse"><stop offset="0" stop-color="#1e9bea"/><stop offset="1" stop-color="#1b89cf"/></radialGradient><radialGradient id="Obj_Gradient" xl:href="#Gradient" gradientTransform="translate(288.5 180.5) scale(84.879326)"/></defs><g stroke="none" stroke-opacity="1" stroke-dasharray="none" fill="none" fill-opacity="1"><title>Canvas 1</title><g><title>Layer 1</title><path d="M 233 119 L 344 119 C 345.65685 119 347 120.343146 347 122 L 347 239 C 347 240.65685 345.65685 242 344 242 L 233 242 C 231.34315 242 230 240.65685 230 239 C 230 239 230 239 230 239 L 230 122 C 230 120.343146 231.34315 119 233 119 C 233 119 233 119 233 119 Z" fill="url(#Obj_Gradient)"/><path d="M 233 119 L 344 119 C 345.65685 119 347 120.343146 347 122 L 347 239 C 347 240.65685 345.65685 242 344 242 L 233 242 C 231.34315 242 230 240.65685 230 239 C 230 239 230 239 230 239 L 230 122 C 230 120.343146 231.34315 119 233 119 C 233 119 233 119 233 119 Z" stroke="#166ba0" stroke-linecap="round" stroke-linejoin="round" stroke-width="1.5"/></g></g></svg>
